# xmcd
#
# Track frame offsets: 
#        150
#        15666
#        32248
#        42331
#        61428
#        74276
#        84840
#        92541
#        109952
#        128485
#        149024
#        162848
#        185741
#        209247
#        222945
#        248715
#        265332
#
# Disc length: 3692 seconds
#
# Revision: 0
# Processed by: cddbd v1.5.2PL0 Copyright (c) Steve Scherf et al.
# Submitted via: ExactAudioCopy v1.3
#
DISCID=fd0e6a11
DTITLE=Barrelhouse Chuck - 25 Years Chicago Blues Piano Vol.1
DYEAR=2014
DGENRE=Blues
TTITLE0=Salute To Sunnyland Slim
TTITLE1=Mama Told Me
TTITLE2=Baby It's Cold Outside
TTITLE3=Blues For Pinetop Perkins
TTITLE4=House Cat Blues
TTITLE5=I'll Be Your King
TTITLE6=Leroy Carr's Hop
TTITLE7=Get Your Money
TTITLE8=Any Old Lonesome Day
TTITLE9=Hangin' Round The House
TTITLE10=My Past Life
TTITLE11=Wah Wah Blues
TTITLE12=Man Or Mouse
TTITLE13=Walkin The Ceiling
TTITLE14=Farewell To Sp Leary
TTITLE15=On The House
TTITLE16=Slam Hammer
EXTD=
EXTT0=
EXTT1=
EXTT2=
EXTT3=
EXTT4=
EXTT5=
EXTT6=
EXTT7=
EXTT8=
EXTT9=
EXTT10=
EXTT11=
EXTT12=
EXTT13=
EXTT14=
EXTT15=
EXTT16=
PLAYORDER=
